<svg xmlns="http://www.w3.org/2000/svg" viewBox="0 0 32 32">
  <defs>
    <linearGradient id="g" x1="0%" y1="0%" x2="100%" y2="100%">
      <stop offset="0%" style="stop-color:#0a0a0a"/>
      <stop offset="100%" style="stop-color:#1a1a1a"/>
    </linearGradient>
  </defs>
  <!-- Dark rounded square background -->
  <rect x="2" y="2" width="28" height="28" rx="6" fill="url(#g)" stroke="#333" stroke-width="1"/>
  
  <!-- Skull outline in UI Blue -->
  <path d="M16 7c-4.4 0-8 3.1-8 7 0 2.5 1.4 4.7 3.5 6v2.5c0 .8.7 1.5 1.5 1.5h6c.8 0 1.5-.7 1.5-1.5V20c2.1-1.3 3.5-3.5 3.5-6 0-3.9-3.6-7-8-7z" 
        fill="none" stroke="#3b82f6" stroke-width="1.5" stroke-linecap="round" stroke-linejoin="round"/>
  
  <!-- Skull eyes -->
  <rect x="11" y="14" width="3" height="3" rx="0.5" fill="#3b82f6"/>
  <rect x="18" y="14" width="3" height="3" rx="0.5" fill="#3b82f6"/>
  
  <!-- Skull nose -->
  <path d="M15 18h2l-1 2z" fill="#3b82f6"/>
  
  <!-- Phone handset integrated -->
  <path d="M10 26c0-1.1.9-2 2-2h8c1.1 0 2 .9 2 2" fill="none" stroke="#3b82f6" stroke-width="1.5" stroke-linecap="round"/>
</svg>
